# xmcd
#
# Track frame offsets:
#  150
#  14166
#  28157
#  45424
#  59480
#  72813
#  87070
#  98083
#  110846
#  123085
#  143002
#  156744
#  172349
#  188289
#  201692
#
# Disc length: 2914 seconds
#
# Revision: 0
# Processed by: cddbd v1.5.2PL0 Copyright (c) Steve Scherf et al.
# Submitted via: AltoMP3_Maker 3.0
#
DISCID=da0b600f
DTITLE=Superstars of Country - Easy Loving - Disc 2
DYEAR=1900
DGENRE=
TTITLE0=Larry Gatlin and The Gatlin Brothers Band - Houston [Means I'm One Day Closer To You]
TTITLE1=Mac Davis - Baby Don't Get Hooked On Me
TTITLE2=Ray Price - For The Good Times
TTITLE3=George Jones - The Grand Tour
TTITLE4=Tammy Wynette - D-I-V-O-R-C-E
TTITLE5=Jeannie C. Riley - Harper Valley P.T.A.
TTITLE6=Willie Nelson - On The Road Again
TTITLE7=Mickey Gilley - Room Full Of Roses
TTITLE8=Charlie Rich - The Most Beautiful Girl
TTITLE9=Johnny Cash - Sunday Morning Coming Down
TTITLE10=Barbara Fairchild - Teddy Bear Song
TTITLE11=Kris Kristofferson - Why Me
TTITLE12=Marty Robbins - My Woman, My Woman, My Wife
TTITLE13=Billy Swan - I Can Help
TTITLE14=Johnny Cash - A Boy Named Sue
EXTD=
EXTT0=
EXTT1=
EXTT2=
EXTT3=
EXTT4=
EXTT5=
EXTT6=
EXTT7=
EXTT8=
EXTT9=
EXTT10=
EXTT11=
EXTT12=
EXTT13=
EXTT14=
PLAYORDER=
